<svg width="639" height="721" viewBox="0 0 639 721" fill="none" xmlns="http://www.w3.org/2000/svg">
<rect width="638.964" height="720.189" rx="54.1495" fill="#D3D3D3"/>
<mask id="path-2-inside-1_28_30" fill="white">
<path d="M43.3198 157.034C43.3198 115.165 77.2608 81.2242 119.129 81.2242H509.006C550.874 81.2242 584.815 115.165 584.815 157.034V579.4C584.815 621.268 550.874 655.209 509.006 655.209H119.129C77.2608 655.209 43.3198 621.268 43.3198 579.4V157.034Z"/>
</mask>
<path d="M43.3198 157.034C43.3198 115.165 77.2608 81.2242 119.129 81.2242H509.006C550.874 81.2242 584.815 115.165 584.815 157.034V579.4C584.815 621.268 550.874 655.209 509.006 655.209H119.129C77.2608 655.209 43.3198 621.268 43.3198 579.4V157.034Z" fill="url(#paint0_linear_28_30)"/>
<path d="M119.129 75.8093C119.129 79.4193 119.129 83.0292 119.129 86.6392C154.143 103.861 189.157 117.923 224.171 128.825C284.569 147.631 344.967 157.034 405.365 157.034C439.912 157.034 474.459 156.945 509.006 156.775C509.244 156.735 509.121 156.678 509.148 156.611C509.158 156.547 509.293 156.535 509.451 156.588C509.61 156.64 509.745 156.712 509.841 156.72C509.935 156.743 510.049 156.68 510.157 157.034C511.56 297.822 514.148 438.611 517.364 579.4C518.536 583.697 514.986 589.764 509.006 590.617C379.047 593.872 249.088 597.53 119.129 601.153C107.689 602.703 94.8638 592.782 94.0778 579.4C91.448 483.431 88.9099 387.463 86.6394 291.494C85.5791 246.674 78.5365 201.854 70.2705 157.034C69.4071 153.979 68.8075 150.8 68.5189 147.518C65.4258 123.132 85.645 91.5219 119.129 86.6392C119.129 83.0292 119.129 79.4193 119.129 75.8093C81.8135 69.6241 35.643 93.2466 20.6899 138.608C18.6857 144.532 17.2317 150.718 16.3692 157.034C8.10313 201.854 1.06058 246.674 0.000209808 291.494C-2.27024 387.463 -4.80833 483.431 -7.43813 579.4C-10.1879 646.78 49.8083 709.679 119.129 709.265C249.088 712.888 379.047 716.546 509.006 719.802C583.787 722.618 653.058 655.864 652.266 579.4C655.482 438.611 658.07 297.822 659.473 157.034C661.766 76.8201 589.746 4.01047 509.006 5.67355C474.459 5.50387 439.912 5.41492 405.365 5.41492C344.967 5.41492 284.569 14.8177 224.171 33.6234C189.157 44.5253 154.143 58.5873 119.129 75.8093ZM119.129 86.6392V75.8093V86.6392Z" fill="black" mask="url(#path-2-inside-1_28_30)"/>
<mask id="path-4-inside-2_28_30" fill="white">
<path d="M248.128 84.7569L245.561 187.014L342.02 221.054L243.975 250.212L241.408 352.469L183.38 268.233L85.3348 297.391L147.516 216.172L89.4878 131.936L185.947 165.976L248.128 84.7569Z"/>
</mask>
<path d="M248.128 84.7569L245.561 187.014L342.02 221.054L243.975 250.212L241.408 352.469L183.38 268.233L85.3348 297.391L147.516 216.172L89.4878 131.936L185.947 165.976L248.128 84.7569Z" fill="#A12929"/>
<path d="M253.541 84.8928C249.933 84.8022 246.324 84.7117 242.715 84.6211C241.767 101.651 240.856 118.681 239.983 135.713C239.11 152.745 238.275 169.777 237.477 186.811L237.21 192.503L242.87 194.64C274.777 206.685 306.733 218.589 338.739 230.351L339.21 211.604C306.403 220.901 273.638 230.342 240.916 239.926L233.477 242.105L233.248 249.943C232.781 265.917 232.347 281.892 231.946 297.868C231.491 315.978 231.048 334.088 230.618 352.198L250.298 346.345C230.918 318.292 211.503 290.263 192.053 262.258L187.666 255.94L180.378 258.137C147.733 267.981 115.1 277.865 82.4795 287.79L93.2881 303.48C113.845 276.276 134.369 249.048 154.859 221.793L158.944 216.358L155.131 210.926C135.542 183.017 115.919 155.132 96.26 127.27L86.7512 139.69C119.032 150.675 151.326 161.621 183.635 172.526L188.507 174.17L191.462 170.198C201.64 156.52 211.809 142.834 221.97 129.143C232.131 115.451 242.284 101.753 252.428 88.0487C249.561 85.8542 246.695 83.6597 243.829 81.4652C233.246 94.8337 222.671 108.209 212.105 121.59C201.539 134.971 190.981 148.359 180.431 161.753L188.258 159.426C156.261 147.637 124.25 135.889 92.2245 124.181L68.4439 115.647L82.7157 136.601C101.743 164.897 120.805 193.169 139.901 221.418L140.174 210.551C119.21 237.442 98.2788 264.359 77.3815 291.301L58.5872 315.7L88.1901 306.992C120.933 297.478 153.664 287.923 186.382 278.328L174.707 274.208C193.943 302.36 213.214 330.488 232.519 358.592L251.345 385.956L252.199 352.74C252.678 334.63 253.144 316.521 253.599 298.411C254 282.435 254.368 266.459 254.703 250.481L247.034 260.498C279.676 250.644 312.275 240.646 344.831 230.504L373.919 221.661L345.301 211.757C313.002 200.826 280.652 190.036 248.253 179.388L253.646 187.217C253.704 170.165 253.724 153.112 253.706 136.058C253.689 119.004 253.634 101.949 253.541 84.8928ZM242.715 84.6211L253.541 84.8928L253.456 69.0874L243.829 81.4652L252.428 88.0487L242.715 84.6211Z" fill="black" mask="url(#path-4-inside-2_28_30)"/>
<mask id="path-6-inside-3_28_30" fill="white">
<path d="M486.386 377.164L483.819 479.421L580.278 513.461L482.233 542.619L479.666 644.876L421.638 560.64L323.593 589.798L385.774 508.579L327.746 424.343L424.204 458.383L486.386 377.164Z"/>
</mask>
<path d="M486.386 377.164L483.819 479.421L580.278 513.461L482.233 542.619L479.666 644.876L421.638 560.64L323.593 589.798L385.774 508.579L327.746 424.343L424.204 458.383L486.386 377.164Z" fill="#A16F29"/>
<path d="M491.799 377.3C488.19 377.21 484.582 377.119 480.973 377.028C475.132 393.935 470.644 410.876 467.51 427.851C464.375 444.826 462.594 461.835 462.166 478.878L461.771 494.609L476.611 499.846C476.611 499.846 476.611 499.846 476.611 499.846C508.764 511.193 540.939 522.477 573.137 533.697L574.161 492.892C541.517 502.74 508.893 512.651 476.287 522.627L461.641 527.108L461.382 542.096C460.794 576.188 460.272 610.282 459.818 644.378L496.017 633.612C476.344 605.761 456.616 577.948 436.832 550.173L428.888 539.019L416.378 542.954C383.849 553.186 351.339 563.482 318.848 573.843L336.81 599.917C357.006 572.438 377.149 544.918 397.24 517.357L403.618 508.607L397.666 500.387C377.662 472.764 357.604 445.178 337.49 417.63L323.808 435.501C356.272 445.965 388.759 456.366 421.268 466.705L427.638 468.73L431.211 463.747C441.15 449.886 451.076 436.014 460.988 422.132C470.901 408.25 480.8 394.358 490.686 380.456C487.819 378.262 484.953 376.067 482.086 373.873C471.245 387.043 460.417 400.224 449.602 413.415C438.788 426.606 427.986 439.807 417.198 453.019L427.141 450.062C395.344 437.706 363.525 425.414 331.683 413.185L297.647 400.677L318.001 431.056C336.573 459.665 355.201 488.237 373.883 516.771L374.309 499.801C352.945 526.386 331.633 553.012 310.375 579.679L278.954 619.945L328.338 605.753C361.21 596.675 394.063 587.532 426.897 578.325L406.443 571.107C425.346 599.489 444.303 627.833 463.316 656.14L497.64 706.561L499.515 645.374C500.771 611.299 501.961 577.222 503.084 543.143L488.179 562.612C520.936 553.148 553.675 543.621 586.395 534.03L649.696 515.332L587.419 493.225C555.311 481.752 523.18 470.343 491.027 458.996C491.027 458.996 491.027 458.996 491.027 458.996L505.472 479.965C505.9 462.922 504.975 445.845 502.696 428.734C500.417 411.624 496.785 394.479 491.799 377.3ZM480.973 377.028L491.799 377.3L488.467 365.819L482.086 373.873L490.686 380.456L480.973 377.028Z" fill="black" mask="url(#path-6-inside-3_28_30)"/>
<mask id="path-8-inside-4_28_30" fill="white">
<circle cx="151.619" cy="546.91" r="108.299"/>
</mask>
<circle cx="151.619" cy="546.91" r="108.299" fill="#1C2D4D"/>
<path d="M265.333 546.91C261.723 546.91 258.113 546.91 254.503 546.91C242.714 557.727 232.136 564.777 223.736 570.352C214.032 576.74 207.244 581.344 202.383 587.479C190.173 602.782 171.591 612.422 151.619 613.127C116.706 615.479 80.9664 585.812 78.8003 546.91C74.7483 508.47 107.757 467.248 151.619 465.055C176.038 463.172 201.667 473.166 219.007 492.451C226.084 500.265 233.984 508.075 240.942 517.882C246.892 526.247 252.005 536.079 254.503 546.91C258.113 546.91 261.723 546.91 265.333 546.91C267.839 535.026 269.411 522.194 268.347 508.983C267.161 493.674 262.224 477.902 252.68 465.197C229.737 434.179 191.705 413.611 151.619 412.168C80.107 407.169 9.08605 469.977 7.83931 546.91C2.86795 623.382 71.1583 697.745 151.619 697.291C196.53 698.444 241.962 677.145 270.007 641.64C281.425 627.464 287.229 608.794 285.552 590.425C284.167 574.422 277.13 558.809 265.333 546.91ZM254.503 546.91H265.333H254.503Z" fill="black" mask="url(#path-8-inside-4_28_30)"/>
<mask id="path-10-inside-5_28_30" fill="white">
<circle cx="476.516" cy="189.523" r="108.299"/>
</mask>
<circle cx="476.516" cy="189.523" r="108.299" fill="#86FF80"/>
<path d="M590.23 189.523C586.62 189.523 583.01 189.523 579.4 189.523C576.225 200.33 571.575 210.084 565.897 218.571C542.823 252.892 505.604 264.784 476.516 259.734C454.605 256.237 436.62 244.583 424.461 228.426C416.077 217.234 411.163 203.84 410.444 189.523C407.854 154.942 434.953 117.409 476.516 111.577C509.052 106.117 548.73 122.91 568.653 159.581C573.615 168.623 577.305 178.718 579.4 189.523C583.01 189.523 586.62 189.523 590.23 189.523C592.333 177.613 592.482 165.044 590.429 152.51C583.16 101.968 535.439 54.9804 476.516 50.871C402.705 42.2344 325.774 108.732 325.989 189.523C325.127 221.627 335.59 254.506 355.127 280.38C382.948 318.214 431.179 339.911 476.516 335.911C538.887 332.212 589.067 280.323 593.185 227.432C594.522 214.341 593.413 201.432 590.23 189.523ZM579.4 189.523H590.23H579.4Z" fill="black" mask="url(#path-10-inside-5_28_30)"/>
<defs>
<linearGradient id="paint0_linear_28_30" x1="509.006" y1="146.204" x2="129.959" y2="606.475" gradientUnits="userSpaceOnUse">
<stop stop-color="#353535"/>
<stop offset="1" stop-color="#BCBCBC"/>
</linearGradient>
</defs>
</svg>
